<?xml version="1.0" standalone="no"?>
<!DOCTYPE svg PUBLIC "-//W3C//DTD SVG 20010904//EN"
 "http://www.w3.org/TR/2001/REC-SVG-20010904/DTD/svg10.dtd">
<svg version="1.0" xmlns="http://www.w3.org/2000/svg"
 width="500.000000pt" height="500.000000pt" viewBox="0 0 500.000000 500.000000"
 preserveAspectRatio="xMidYMid meet">

<g transform="translate(0.000000,500.000000) scale(0.100000,-0.100000)"
fill="#000000" stroke="none">
<path d="M0 2500 l0 -2500 2500 0 2500 0 0 2500 0 2500 -2500 0 -2500 0 0
-2500z m3190 1556 c138 -208 160 -275 167 -518 l5 -178 -365 0 c-426 0 -408 4
-417 -96 l-5 -59 -75 0 -75 0 -5 59 c-9 100 9 96 -416 96 l-364 0 0 58 1 57
268 177 c147 98 288 187 313 198 73 32 154 48 296 59 221 18 344 70 537 230
27 22 52 37 56 33 3 -4 39 -56 79 -116z m-1706 -908 c2 -29 10 -102 16 -162 6
-59 9 -110 6 -113 -3 -3 -38 22 -79 56 -74 60 -97 95 -97 148 0 58 64 123 122
123 25 0 27 -3 32 -52z m316 -91 c0 -134 2 -146 26 -195 48 -97 124 -132 284
-132 120 0 185 18 233 65 53 52 70 90 76 175 l6 75 75 0 75 0 5 -75 c7 -90 38
-152 97 -192 53 -37 103 -48 214 -48 159 0 235 35 283 132 24 49 26 61 26 195
l0 143 81 0 81 0 -7 -77 c-25 -308 -110 -611 -239 -848 l-44 -80 -573 0 -574
0 -62 123 c-127 255 -192 494 -218 805 l-7 77 81 0 81 0 0 -143z m468 12 c-3
-129 -3 -131 -31 -155 -26 -22 -37 -24 -128 -24 -98 0 -101 1 -130 29 -29 29
-29 30 -29 155 l0 126 161 0 161 0 -4 -131z m782 11 c0 -66 -5 -130 -11 -143
-17 -37 -50 -47 -154 -47 -85 0 -97 2 -122 24 -28 24 -28 26 -32 155 l-3 131
161 0 161 0 0 -120z m561 97 c47 -31 67 -90 51 -146 -10 -31 -29 -53 -88 -102
-41 -34 -78 -59 -81 -56 -3 3 0 43 6 88 6 45 11 103 11 129 0 85 9 110 40 110
15 0 42 -10 61 -23z m415 -1182 c30 -19 60 -49 79 -79 l30 -49 3 -814 2 -813
-1640 0 -1640 0 2 813 3 812 27 46 c28 47 85 94 134 109 16 5 686 8 1490 7
l1461 -2 49 -30z"/>
<path d="M1807 1762 c-150 -151 -167 -172 -167 -202 0 -30 17 -51 162 -197 89
-90 167 -163 173 -163 6 0 34 24 63 53 l52 52 -125 125 c-69 69 -125 128 -125
133 0 4 53 62 118 128 64 66 118 124 120 129 3 8 -19 33 -74 82 l-30 28 -167
-168z"/>
<path d="M2970 1875 l-54 -55 89 -93 c50 -50 106 -109 125 -130 l34 -37 -127
-128 -127 -127 53 -53 c29 -28 57 -52 63 -52 5 0 83 73 172 163 145 146 162
167 162 197 0 30 -17 51 -168 202 l-167 169 -55 -56z"/>
<path d="M2433 1608 l-232 -310 62 -49 c34 -26 65 -45 69 -41 27 28 458 607
458 616 0 11 -89 83 -113 91 -7 2 -114 -132 -244 -307z"/>
<path d="M2395 1077 c-128 -52 -195 -144 -203 -277 -3 -61 0 -86 19 -135 77
-206 353 -261 512 -102 145 144 103 404 -80 497 -38 20 -66 25 -133 27 -50 1
-98 -3 -115 -10z m171 -157 c148 -72 98 -290 -66 -290 -164 0 -214 224 -65
291 52 24 79 24 131 -1z"/>
</g>
</svg>
